<svg xmlns="http://www.w3.org/2000/svg" viewBox="0 0 78.5 58.9"><path fill="#6BBFB1" d="M6,9.3V63.7a2.2,2.2,0,0,0,2.2,2.2h74a2.2,2.2,0,0,0,2.2-2.2V9.3a2.2,2.2,0,0,0-2.2-2.2H8.3A2.2,2.2,0,0,0,6,9.3ZM26,31.6a2.2,2.2,0,0,1,.3,3.2L12.6,51.7V20.7Zm-5.5-18H70.1a2.2,2.2,0,0,1,1.4,4L46.7,37.7a2.2,2.2,0,0,1-2.8,0L19.1,17.6A2.2,2.2,0,0,1,20.5,13.6Zm14,24.9,9.3,7.6a2.2,2.2,0,0,0,2.8,0l9.4-7.6a2.2,2.2,0,0,1,3.2.3L73.2,55.7a2.2,2.2,0,0,1-1.7,3.7h-52a2.2,2.2,0,0,1-1.7-3.7L31.4,38.9A2.2,2.2,0,0,1,34.5,38.5Zm29.8-3.8a2.2,2.2,0,0,1,.3-3.2L78,20.7V51.3Z" transform="translate(-6 -7.1)"/></svg>